{"title":"Warcraft 2016 720p + Extras multi-subs BRRip x264-TheRival","uid":15828481,"size":3023323139,"categoryP":"video","categoryS":"hd___movies","magnet":"?xt=urn:btih:549fed2600820403a6a5c9949ad453616980b834&amp;dn=Warcraft+2016+720p+%2B+Extras+multi-subs+BRRip+x264-TheRival&amp;tr=udp%3A%2F%2Ftracker.leechers-paradise.org%3A6969&amp;tr=udp%3A%2F%2Fzer0day.ch%3A1337&amp;tr=udp%3A%2F%2Fopen.demonii.com%3A1337&amp;tr=udp%3A%2F%2Ftracker.coppersurfer.tk%3A6969&amp;tr=udp%3A%2F%2Fexodus.desync.com%3A6969","seeders":8,"leechers":5,"uploader":"TheRival","files":40,"time":1473886147,"description":"Screens: \nhttp://extraimago.com/image/wIkP \nhttp://extraimago.com/image/wIkX \nhttp://extraimago.com/image/wIkg \nhttp://extraimago.com/image/wIk5\r\n\r\nMovie Subtitles:\r\nEnglish, French, German, Italian, Spanish, Dutch, Danish, Finnish, Norwegian, Swedish, Portuguese, Hindi, Arabic, Icelandic\r\n\r\nExtras subtitles:\r\n- English only\r\n\r\nVideo\r\nID : 1\r\nFormat : AVC\r\nFormat/Info : Advanced Video Codec\r\nFormat profile :   \r\nFormat settings, CABAC : Yes\r\nFormat settings, ReFrames : 4 frames\r\nCodec ID : avc1\r\nCodec ID/Info : Advanced Video Coding\r\nDuration : 2 h 3 min\r\nBit rate : 1 200 kb/s\r\nWidth : 1 280 pixels\r\nHeight : 720 pixels\r\nDisplay aspect ratio : 16:9\r\nFrame rate mode : Constant\r\nFrame rate : 23.976 (24000/1001) FPS\r\nColor space : YUV\r\nChroma subsampling : 4:2:0\r\nBit depth : 8 bits\r\nScan type : Progressive\r\nBits/(Pixel*Frame) : 0.054\r\nStream size : 1.03 GiB (90%)\r\nWriting library : x264 core 146\r\nEncoding settings : cabac=1 / ref=1 / deblock=1:0:0 / analyse=0x3:0x3 / me=dia / subme=1 / psy=1 / psy_rd=1.00:0.00 / mixed_ref=0 / me_range=16 / chroma_me=1 / trellis=0 / 8x8dct=1 / cqm=0 / deadzone=21,11 / fast_pskip=1 / chroma_qp_offset=0 / threads=6 / lookahead_threads=1 / sliced_threads=0 / nr=0 / decimate=1 / interlaced=0 / bluray_compat=0 / constrained_intra=0 / bframes=3 / b_pyramid=2 / b_adapt=1 / b_bias=0 / direct=1 / weightb=1 / open_gop=0 / weightp=1 / keyint=250 / keyint_min=23 / scenecut=40 / intra_refresh=0 / rc=2pass / mbtree=0 / bitrate=1200 / ratetol=1.0 / qcomp=0.60 / qpmin=0 / qpmax=69 / qpstep=4 / cplxblur=20.0 / qblur=0.5 / ip_ratio=1.40 / pb_ratio=1.30 / aq=1:1.00\r\n\r\nAudio\r\nID : 2\r\nFormat : AAC\r\nFormat/Info : Advanced Audio Codec\r\nFormat profile : LC\r\nCodec ID : 40\r\nDuration : 2 h 3 min\r\nDuration_LastFrame : -12 ms\r\nBit rate mode : Constant\r\nBit rate : 128 kb/s\r\nChannel(s) : 2 channels\r\nChannel positions : Front: L R\r\nSampling rate : 48.0 kHz\r\nFrame rate : 46.875 FPS (1024 spf)\r\nCompression mode : Lossy\r\nStream size : 113 MiB (10%)\r\nDefault : Yes\r\nAlternate group : 1","torrent":{"xt":"urn:btih:549fed2600820403a6a5c9949ad453616980b834","amp;dn":"Warcraft+2016+720p+%2B+Extras+multi-subs+BRRip+x264-TheRival","amp;tr":["udp%3A%2F%2Ftracker.leechers-paradise.org%3A6969","udp%3A%2F%2Fzer0day.ch%3A1337","udp%3A%2F%2Fopen.demonii.com%3A1337","udp%3A%2F%2Ftracker.coppersurfer.tk%3A6969","udp%3A%2F%2Fexodus.desync.com%3A6969"],"infoHash":"549fed2600820403a6a5c9949ad453616980b834","infoHashBuffer":{"type":"Buffer","data":[84,159,237,38,0,130,4,3,166,165,201,148,154,212,83,97,105,128,184,52]},"announce":[],"urlList":[]}}